<svg xmlns="http://www.w3.org/2000/svg" width="92" height="71" viewBox="0 0 92 71" fill="none">
<path d="M11.4286 70.2021H80C86.3036 70.2021 91.4286 65.7048 91.4286 60.1732V20.0577C91.4286 14.5262 86.3036 10.0289 80 10.0289H51.4286C49.625 10.0289 47.9286 9.29237 46.8571 8.02309L43.4286 4.01155C41.2679 1.48866 37.875 0 34.2857 0H11.4286C5.125 0 0 4.49732 0 10.0289V60.1732C0 65.7048 5.125 70.2021 11.4286 70.2021Z" fill="#D2A671"/>
<path d="M37.4286 41.5714C37.4286 40.6232 36.6625 39.8571 35.7143 39.8571C34.7661 39.8571 34 40.6232 34 41.5714V45C34 47.8393 36.3036 50.1428 39.1429 50.1428H52.8571C55.6964 50.1428 58 47.8393 58 45V41.5714C58 40.6232 57.2339 39.8571 56.2857 39.8571C55.3375 39.8571 54.5714 40.6232 54.5714 41.5714V45C54.5714 45.9482 53.8054 46.7143 52.8571 46.7143H39.1429C38.1946 46.7143 37.4286 45.9482 37.4286 45V41.5714Z" fill="#F1F1F1"/>
<path d="M44.7934 39.3536C45.4631 40.0232 46.5506 40.0232 47.2202 39.3536L54.0774 32.4965C54.747 31.8268 54.747 30.7393 54.0774 30.0697C53.4077 29.4 52.3202 29.4 51.6506 30.0697L47.7184 34.0018V22.7143C47.7184 21.7661 46.9524 21 46.0041 21C45.0559 21 44.2899 21.7661 44.2899 22.7143V34.0018L40.3577 30.0697C39.6881 29.4 38.6006 29.4 37.9309 30.0697C37.2613 30.7393 37.2613 31.8268 37.9309 32.4965L44.7881 39.3536H44.7934Z" fill="#F1F1F1"/>
</svg>