<svg width="22" height="30" viewBox="0 0 22 30" fill="none" xmlns="http://www.w3.org/2000/svg">
<path opacity="0.3" d="M12.3578 28.9979C15.2969 25.2686 22 16.23 22 11.153C22 4.99563 17.0729 0 11 0C4.92708 0 0 4.99563 0 11.153C0 16.23 6.70313 25.2686 9.64219 28.9979C10.3469 29.8866 11.6531 29.8866 12.3578 28.9979ZM11 7.43535C11.9725 7.43535 12.9051 7.82703 13.5927 8.52423C14.2804 9.22143 14.6667 10.167 14.6667 11.153C14.6667 12.139 14.2804 13.0846 13.5927 13.7818C12.9051 14.479 11.9725 14.8707 11 14.8707C10.0275 14.8707 9.09491 14.479 8.40728 13.7818C7.71964 13.0846 7.33333 12.139 7.33333 11.153C7.33333 10.167 7.71964 9.22143 8.40728 8.52423C9.09491 7.82703 10.0275 7.43535 11 7.43535Z" fill="#F1F1F1"/>
</svg>
