<svg xmlns="http://www.w3.org/2000/svg" width="118" height="120" viewBox="0 0 118 120" fill="none">
  <g filter="url(#filter0_d_297_200)">
    <circle cx="58" cy="58" r="50" fill="#F1F1F1"/>
    <path d="M75.5112 40.2656C70.8348 35.5781 64.6071 33 57.9888 33C44.3281 33 33.2121 44.1161 33.2121 57.7768C33.2121 62.1406 34.3504 66.404 36.5156 70.1652L33 83L46.1362 79.5513C49.7522 81.5268 53.8259 82.5647 57.9777 82.5647H57.9888C71.6384 82.5647 83 71.4487 83 57.7879C83 51.1696 80.1875 44.9531 75.5112 40.2656ZM57.9888 78.3906C54.2835 78.3906 50.6562 77.3973 47.4978 75.5223L46.75 75.0759L38.9598 77.1183L41.0357 69.5179L40.5446 68.7366C38.4799 65.4554 37.3973 61.6719 37.3973 57.7768C37.3973 46.4263 46.6384 37.1853 58 37.1853C63.5022 37.1853 68.6696 39.3281 72.5536 43.2232C76.4375 47.1183 78.8259 52.2857 78.8147 57.7879C78.8147 69.1496 69.3393 78.3906 57.9888 78.3906ZM69.2835 62.9665C68.6696 62.654 65.6228 61.1585 65.0536 60.9576C64.4844 60.7455 64.0714 60.6451 63.6585 61.2701C63.2455 61.8951 62.0625 63.279 61.6942 63.7031C61.3371 64.1161 60.9688 64.1719 60.3549 63.8594C56.7165 62.0402 54.3281 60.6116 51.9286 56.4933C51.2924 55.3996 52.5647 55.4777 53.7478 53.1116C53.9487 52.6987 53.8482 52.3415 53.692 52.029C53.5357 51.7165 52.2969 48.6696 51.7835 47.4308C51.2812 46.2254 50.7679 46.3929 50.3884 46.3705C50.0312 46.3482 49.6183 46.3482 49.2054 46.3482C48.7924 46.3482 48.1228 46.5045 47.5536 47.1183C46.9844 47.7433 45.3884 49.2388 45.3884 52.2857C45.3884 55.3326 47.6094 58.279 47.9107 58.692C48.2232 59.1049 52.2746 65.3549 58.4911 68.0446C62.4196 69.7411 63.9598 69.8862 65.9241 69.596C67.1183 69.4174 69.5848 68.1004 70.0982 66.6496C70.6116 65.1987 70.6116 63.9598 70.4554 63.7031C70.3103 63.4241 69.8973 63.2679 69.2835 62.9665Z" fill="#D2A671"/>
  </g>
  <defs>
    <filter id="filter0_d_297_200" x="0" y="0" width="120" height="120" filterUnits="userSpaceOnUse" color-interpolation-filters="sRGB">
      <feFlood flood-opacity="0" result="BackgroundImageFix"/>
      <feColorMatrix in="SourceAlpha" type="matrix" values="0 0 0 0 0 0 0 0 0 0 0 0 0 0 0 0 0 0 127 0" result="hardAlpha"/>
      <feOffset dx="2" dy="2"/>
      <feGaussianBlur stdDeviation="5"/>
      <feComposite in2="hardAlpha" operator="out"/>
      <feColorMatrix type="matrix" values="0 0 0 0 0.137255 0 0 0 0 0.121569 0 0 0 0 0.12549 0 0 0 0.3 0"/>
      <feBlend mode="normal" in2="BackgroundImageFix" result="effect1_dropShadow_297_200"/>
      <feBlend mode="normal" in="SourceGraphic" in2="effect1_dropShadow_297_200" result="shape"/>
    </filter>
  </defs>
</svg>