<svg xmlns="http://www.w3.org/2000/svg" width="163" height="42" viewBox="0 0 163 42" fill="none">
  <mask id="mask0_199_460" style="mask-type:luminance" maskUnits="userSpaceOnUse" x="0" y="0" width="163" height="42">
    <path d="M162.726 0H0V41.3271H162.726V0Z" fill="white"/>
  </mask>
  <g mask="url(#mask0_199_460)">
    <path d="M12.5398 19.4137C14.4145 19.4137 15.331 17.8722 15.331 16.2891C15.331 14.7477 14.4145 13.1646 12.5398 13.1646H5.9991V19.4137H12.5398ZM0 8.08203H13.123C18.4556 8.08203 21.1635 12.1647 21.1635 16.2475C21.1635 20.3302 18.4556 24.4129 13.123 24.4129H5.9991V33.1616H0V8.08203Z" fill="#DAE5EF"/>
  </g>
  <mask id="mask1_199_460" style="mask-type:luminance" maskUnits="userSpaceOnUse" x="0" y="0" width="163" height="42">
    <path d="M162.726 0H0V41.3271H162.726V0Z" fill="white"/>
  </mask>
  <g mask="url(#mask1_199_460)">
    <path d="M24.4963 33.2031V19.6218C24.4547 18.9552 24.3713 18.2054 23.5798 18.2054H22.7466V13.831H23.6215C25.5795 13.831 30.3704 13.831 30.3704 17.0805V17.1222C31.7036 15.0808 33.6616 13.5811 36.4112 13.5811C37.661 13.5811 39.0775 13.9143 40.6606 14.6642L39.2858 19.1219C38.5359 18.8303 37.6193 18.7053 36.6612 18.7053C33.7033 18.7053 30.3704 20.1217 30.3704 23.2463V33.2448H24.4963V33.2031Z" fill="#DAE5EF"/>
  </g>
  <mask id="mask2_199_460" style="mask-type:luminance" maskUnits="userSpaceOnUse" x="0" y="0" width="163" height="42">
    <path d="M162.726 0H0V41.3271H162.726V0Z" fill="white"/>
  </mask>
  <g mask="url(#mask2_199_460)">
    <path d="M43.2851 13.8318H49.1593V33.2039H43.2851V13.8318ZM46.243 6.08301C48.1177 6.08301 49.3676 7.2495 49.3676 8.99923C49.3676 10.7073 48.1177 11.9155 46.243 11.9155C44.3683 11.9155 43.1602 10.749 43.1602 8.99923C43.1602 7.2495 44.3683 6.08301 46.243 6.08301Z" fill="#DAE5EF"/>
  </g>
  <mask id="mask3_199_460" style="mask-type:luminance" maskUnits="userSpaceOnUse" x="0" y="0" width="163" height="42">
    <path d="M162.726 0H0V41.3271H162.726V0Z" fill="white"/>
  </mask>
  <g mask="url(#mask3_199_460)">
    <path d="M53.5337 33.2047V19.6234C53.492 18.9568 53.4087 18.207 52.6171 18.207H51.7839V13.8326H52.6588C54.4919 13.8326 58.7412 13.8326 59.3245 16.4156C60.4076 14.7491 62.199 13.416 64.6987 13.416C68.2398 13.416 70.4895 14.6658 71.5726 17.1655C72.3642 15.1241 74.0722 13.416 77.3634 13.416C82.6959 13.416 85.0289 16.1656 85.0289 21.7898V26.5807C85.0289 28.2055 85.4039 28.9137 87.0703 28.9137H87.3203V33.2047C84.3207 33.2047 79.1131 33.3713 79.1131 28.6637V22.8729C79.1131 19.5401 78.1966 17.8737 75.8636 17.8737C73.6973 17.8737 72.5308 19.5818 72.3642 22.6646V33.2047H66.4484V22.8729C66.4484 19.5401 65.4485 17.8737 63.0739 17.8737C60.7409 17.8737 59.3661 19.8734 59.4078 23.4978L59.3661 23.4562V33.163H53.5337V33.2047Z" fill="#DAE5EF"/>
  </g>
  <mask id="mask4_199_460" style="mask-type:luminance" maskUnits="userSpaceOnUse" x="0" y="0" width="163" height="42">
    <path d="M162.726 0H0V41.3271H162.726V0Z" fill="white"/>
  </mask>
  <g mask="url(#mask4_199_460)">
    <path d="M104.817 20.5383C104.151 18.8719 102.734 17.4138 100.568 17.4138C98.1102 17.4138 96.5271 18.7885 95.7772 20.5383H104.817ZM100.318 13.2061C105.651 13.2061 110.442 17.0388 110.483 24.1627L95.3189 24.1211C95.6939 26.5374 97.4019 28.6621 100.443 28.6621C102.818 28.6621 104.484 27.7455 105.692 26.1624L109.608 29.6619C107.442 32.3282 104.109 34.0362 100.277 34.0362C95.2356 34.0362 89.3198 30.4951 89.3198 23.6212C89.3615 16.7055 95.2773 13.2061 100.318 13.2061Z" fill="#DAE5EF"/>
  </g>
  <mask id="mask5_199_460" style="mask-type:luminance" maskUnits="userSpaceOnUse" x="0" y="0" width="163" height="42">
    <path d="M162.726 0H0V41.3271H162.726V0Z" fill="white"/>
  </mask>
  <g mask="url(#mask5_199_460)">
    <path d="M156.31 0H131.564C128.772 0 126.273 1.83306 125.439 4.49932L116.607 32.995C115.316 37.1194 118.399 41.3271 122.732 41.3271H147.478C150.269 41.3271 152.769 39.4941 153.602 36.8278L155.185 31.7452H148.228L145.936 26.2877H134.896L132.772 31.7452H126.106L134.563 11.4566C135.146 10.0818 135.938 8.99864 137.021 8.24876C138.063 7.49887 139.729 7.12393 142.02 7.12393C143.895 7.12393 145.436 7.45721 146.603 8.16544C147.769 8.87366 148.644 9.95683 149.269 11.4566L156.226 28.3291L162.434 8.33208C163.725 4.2077 160.642 0 156.31 0Z" fill="#CEA776"/>
  </g>
  <mask id="mask6_199_460" style="mask-type:luminance" maskUnits="userSpaceOnUse" x="0" y="0" width="163" height="42">
    <path d="M162.726 0H0V41.3271H162.726V0Z" fill="white"/>
  </mask>
  <g mask="url(#mask6_199_460)">
    <path d="M141.103 14.7473C140.978 14.4974 140.728 14.4141 140.353 14.4141C139.979 14.4141 139.687 14.539 139.52 14.7473C139.354 14.9973 139.229 15.2473 139.104 15.4972L136.271 22.9128H144.353L141.478 15.4972C141.395 15.2056 141.27 14.9556 141.103 14.7473Z" fill="#CEA776"/>
  </g>
</svg>