<svg width="100" height="164" viewBox="0 0 100 164" fill="none" xmlns="http://www.w3.org/2000/svg">
<g id="arrowDown">
<rect id="Rectangle 161" width="100" height="164" fill="#F1F1F1"/>
<g id="Group 1">
<path id="Vector" d="M48.735 91.2373C49.7112 92.1991 51.2966 92.1991 52.2728 91.2373L67.2678 76.4636C68.2441 75.5018 68.2441 73.9398 67.2678 72.978C66.2916 72.0161 64.7062 72.0161 63.7299 72.978L50.5 86.0126L37.2701 72.9857C36.2938 72.0238 34.7084 72.0238 33.7322 72.9857C32.7559 73.9475 32.7559 75.5095 33.7322 76.4713L48.7272 91.245L48.735 91.2373Z" fill="#D2A671"/>
<path id="Vector_2" d="M48.4871 66.6942C49.3239 67.5186 50.6828 67.5186 51.5196 66.6942L64.3724 54.0311C65.2092 53.2067 65.2092 51.8678 64.3724 51.0434C63.5356 50.2189 62.1767 50.2189 61.34 51.0434L50 62.2159L38.66 51.05C37.8233 50.2255 36.4644 50.2255 35.6276 51.05C34.7908 51.8744 34.7908 53.2132 35.6276 54.0377L48.4804 66.7008L48.4871 66.6942Z" fill="#D2A671"/>
</g>
</g>
</svg>
