<svg xmlns="http://www.w3.org/2000/svg" width="24" height="25" viewBox="0 0 24 25" fill="none">
<path opacity="0.8" d="M19.501 9.75048C19.501 11.9021 18.8025 13.8897 17.6259 15.5023L23.5605 21.4417C24.1465 22.0276 24.1465 22.9792 23.5605 23.5652C22.9746 24.1512 22.0229 24.1512 21.437 23.5652L15.5023 17.6259C13.8897 18.8072 11.9021 19.501 9.75048 19.501C4.36428 19.501 0 15.1367 0 9.75048C0 4.36428 4.36428 0 9.75048 0C15.1367 0 19.501 4.36428 19.501 9.75048ZM8.62542 13.8757C8.62542 14.4991 9.12701 15.0007 9.75048 15.0007C10.3739 15.0007 10.8755 14.4991 10.8755 13.8757V10.8755H13.8757C14.4991 10.8755 15.0007 10.3739 15.0007 9.75048C15.0007 9.12701 14.4991 8.62542 13.8757 8.62542H10.8755V5.62527C10.8755 5.00181 10.3739 4.50022 9.75048 4.50022C9.12701 4.50022 8.62542 5.00181 8.62542 5.62527V8.62542H5.62527C5.00181 8.62542 4.50022 9.12701 4.50022 9.75048C4.50022 10.3739 5.00181 10.8755 5.62527 10.8755H8.62542V13.8757Z" fill="#F1F1F1"/>
</svg>